<?xml version="1.0" encoding="utf-8"?>
<!-- Generator: Adobe Illustrator 27.4.0, SVG Export Plug-In . SVG Version: 6.00 Build 0)  -->
<svg version="1.1" id="uuid-87896ee9-ba30-470a-b3ce-e4ec9adee7da"
	 xmlns="http://www.w3.org/2000/svg" xmlns:xlink="http://www.w3.org/1999/xlink" x="0px" y="0px" viewBox="0 0 781.3 237.2"
	 style="enable-background:new 0 0 781.3 237.2;" xml:space="preserve">
<style type="text/css">
	.st0{fill:url(#SVGID_1_);}
	.st1{fill:url(#SVGID_00000040575942224402131530000009751297160283318148_);}
	.st2{fill:url(#SVGID_00000054233729466250884810000006396484916518562742_);}
	.st3{fill:url(#SVGID_00000047747435781665306780000002483432300994133122_);}
	.st4{fill:url(#SVGID_00000089573408612314665600000008227201554106438551_);}
	.st5{fill:url(#SVGID_00000083774448611575160190000000274483786972081821_);}
	.st6{fill:url(#SVGID_00000101073133396420899510000003034005002828782991_);}
	.st7{fill:url(#SVGID_00000051385673637592377770000013023033366901467056_);}
	.st8{fill:url(#SVGID_00000140002342905931395670000016447833547651566727_);}
</style>
<linearGradient id="SVGID_1_" gradientUnits="userSpaceOnUse" x1="23.0427" y1="135.3171" x2="749.9927" y2="135.3171" gradientTransform="matrix(1 0 0 -1 0 252.2941)">
	<stop  offset="0" style="stop-color:#2196F3"/>
	<stop  offset="0.83" style="stop-color:#9E9E9E"/>
</linearGradient>
<path class="st0" d="M23,205.6V72.5c0-28.6,17.7-47.8,44.5-47.8s44.7,19.2,44.7,47.8v133.1c0,2.3-1.3,3.6-3.6,3.6H92.2
	c-2.1,0-3.6-1.3-3.6-3.6v-57.7H46.4v57.7c0,2.3-1.3,3.6-3.4,3.6H26.4C24.3,209.3,23,208,23,205.6z M88.6,126.3V71.5
	c0-15.6-7.5-24.7-21.1-24.7s-21.1,9.1-21.1,24.7v54.9H88.6z"/>
<linearGradient id="SVGID_00000175302707999640593350000017177225505605747088_" gradientUnits="userSpaceOnUse" x1="23.0427" y1="134.0171" x2="749.9927" y2="134.0171" gradientTransform="matrix(1 0 0 -1 0 252.2941)">
	<stop  offset="0" style="stop-color:#2196F3"/>
	<stop  offset="0.83" style="stop-color:#9E9E9E"/>
</linearGradient>
<path style="fill:url(#SVGID_00000175302707999640593350000017177225505605747088_);" d="M140.6,205.6v-175c0-2.1,1.3-3.4,3.6-3.4
	h15.1c2.3,0,3.6,1.3,3.6,3.4v175c0,2.3-1.3,3.6-3.6,3.6h-15.1C141.9,209.3,140.6,208,140.6,205.6z"/>
<linearGradient id="SVGID_00000052801959980488803770000013443145490930995631_" gradientUnits="userSpaceOnUse" x1="23.0427" y1="134.0171" x2="749.9927" y2="134.0171" gradientTransform="matrix(1 0 0 -1 0 252.2941)">
	<stop  offset="0" style="stop-color:#2196F3"/>
	<stop  offset="0.83" style="stop-color:#9E9E9E"/>
</linearGradient>
<path style="fill:url(#SVGID_00000052801959980488803770000013443145490930995631_);" d="M191.8,205.6v-175c0-2.1,1.3-3.4,3.6-3.4
	h15.1c2.3,0,3.6,1.3,3.6,3.4v175c0,2.3-1.3,3.6-3.6,3.6h-15.1C193.1,209.3,191.8,208,191.8,205.6L191.8,205.6z"/>
<linearGradient id="SVGID_00000031194448391835443600000006917658101721594281_" gradientUnits="userSpaceOnUse" x1="23.0427" y1="129.5871" x2="749.9927" y2="129.5871" gradientTransform="matrix(1 0 0 -1 0 252.2941)">
	<stop  offset="0" style="stop-color:#2196F3"/>
	<stop  offset="0.83" style="stop-color:#9E9E9E"/>
</linearGradient>
<path style="fill:url(#SVGID_00000031194448391835443600000006917658101721594281_);" d="M240.7,49.6c0-7.8,5.5-13.5,13.3-13.5
	c7.8,0,13.5,5.7,13.5,13.5c0,7-6,13.3-13.5,13.3C246.4,62.9,240.7,57.2,240.7,49.6z M243,205.6v-123c0-2.1,1.3-3.4,3.6-3.4h15.1
	c2.3,0,3.6,1.3,3.6,3.4v123c0,2.3-1.3,3.6-3.6,3.6h-15.1C244.3,209.3,243,208,243,205.6z"/>
<linearGradient id="SVGID_00000166656867889325517140000015456182096916857224_" gradientUnits="userSpaceOnUse" x1="23.0427" y1="108.2771" x2="749.9927" y2="108.2771" gradientTransform="matrix(1 0 0 -1 0 252.2941)">
	<stop  offset="0" style="stop-color:#2196F3"/>
	<stop  offset="0.83" style="stop-color:#9E9E9E"/>
</linearGradient>
<path style="fill:url(#SVGID_00000166656867889325517140000015456182096916857224_);" d="M290.8,205.6v-81.4
	c0-28.1,18.2-45.5,44.5-45.5h9.6c2.1,0,3.4,1.3,3.4,3.6v14c0,2.1-1.3,3.4-3.4,3.4h-9.4c-13.5,0-22.4,8.6-22.4,22.6v83.2
	c0,2.3-1.3,3.6-3.6,3.6h-15.1C292.1,209.3,290.8,208,290.8,205.6z"/>
<linearGradient id="SVGID_00000005251636584240202740000012153197232609712049_" gradientUnits="userSpaceOnUse" x1="23.0427" y1="108.0171" x2="749.9927" y2="108.0171" gradientTransform="matrix(1 0 0 -1 0 252.2941)">
	<stop  offset="0" style="stop-color:#2196F3"/>
	<stop  offset="0.83" style="stop-color:#9E9E9E"/>
</linearGradient>
<path style="fill:url(#SVGID_00000005251636584240202740000012153197232609712049_);" d="M356.9,169.8v-51
	c0-24.7,16.6-42.4,41.6-42.4s41.6,17.7,41.6,42.4v51c0,24.7-16.4,42.4-41.6,42.4S356.9,194.5,356.9,169.8z M417.7,170.5V118
	c0-12.2-7.3-20.5-19.2-20.5s-19,8.3-19,20.5v52.5c0,12.2,7,20.5,19,20.5S417.7,182.8,417.7,170.5z"/>
<linearGradient id="SVGID_00000042705839591608136120000016288262781871549852_" gradientUnits="userSpaceOnUse" x1="23.0427" y1="106.5771" x2="749.9927" y2="106.5771" gradientTransform="matrix(1 0 0 -1 0 252.2941)">
	<stop  offset="0" style="stop-color:#2196F3"/>
	<stop  offset="0.83" style="stop-color:#9E9E9E"/>
</linearGradient>
<path style="fill:url(#SVGID_00000042705839591608136120000016288262781871549852_);" d="M478.8,79.3c2.3,0,3.6,1.3,3.6,3.4v87.9
	c0,12.2,6.8,20.5,18.2,20.5s18.2-8.3,18.2-20.5V82.7c0-2.1,1.3-3.4,3.6-3.4h15.1c2.3,0,3.6,1.3,3.6,3.4v87.1
	c0,24.7-16.4,42.4-40.6,42.4s-40.6-17.7-40.6-42.4V82.7c0-2.1,1.3-3.4,3.6-3.4L478.8,79.3L478.8,79.3z"/>
<linearGradient id="SVGID_00000075149105294423633060000004705142639014392239_" gradientUnits="userSpaceOnUse" x1="23.0427" y1="109.4471" x2="749.9927" y2="109.4471" gradientTransform="matrix(1 0 0 -1 0 252.2941)">
	<stop  offset="0" style="stop-color:#2196F3"/>
	<stop  offset="0.83" style="stop-color:#9E9E9E"/>
</linearGradient>
<path style="fill:url(#SVGID_00000075149105294423633060000004705142639014392239_);" d="M563.6,205.6v-86.8
	c0-24.7,16.4-42.4,40.6-42.4s40.6,17.7,40.6,42.4v86.8c0,2.3-1.3,3.6-3.6,3.6H626c-2.3,0-3.6-1.3-3.6-3.6V118
	c0-12.2-6.8-20.5-18.2-20.5s-18.2,8.3-18.2,20.5v87.6c0,2.3-1.3,3.6-3.6,3.6h-15.1C564.9,209.3,563.6,208,563.6,205.6L563.6,205.6z"
	/>
<linearGradient id="SVGID_00000096744391157153598150000016071229769718840193_" gradientUnits="userSpaceOnUse" x1="23.0427" y1="132.5771" x2="749.9927" y2="132.5771" gradientTransform="matrix(1 0 0 -1 0 252.2941)">
	<stop  offset="0" style="stop-color:#2196F3"/>
	<stop  offset="0.83" style="stop-color:#9E9E9E"/>
</linearGradient>
<path style="fill:url(#SVGID_00000096744391157153598150000016071229769718840193_);" d="M750,30.7v139.1
	c0,24.7-16.6,42.4-41.3,42.4s-41.3-17.7-41.3-42.4v-51c0-24.7,15.3-42.4,38.7-42.4c9.1,0,16.1,3.6,21.6,9.4V30.7
	c0-2.1,1.3-3.4,3.6-3.4h15.1C748.7,27.3,750,28.6,750,30.7z M727.6,118c0-12.2-7-20.3-19-20.3s-19.2,8.1-19.2,20.3v52.5
	c0,12.2,7.3,20.3,19.2,20.3s19-8.1,19-20.3V118z"/>
</svg>
